<?xml version="1.0" encoding="utf-8"?>
<!-- Generator: Adobe Illustrator 25.0.0, SVG Export Plug-In . SVG Version: 6.00 Build 0)  -->
<svg version="1.1" id="Layer_1" xmlns="http://www.w3.org/2000/svg" xmlns:xlink="http://www.w3.org/1999/xlink" x="0px" y="0px"
	 viewBox="0 0 101 100" style="enable-background:new 0 0 101 100;" xml:space="preserve">
<style type="text/css">
	.st0{opacity:0.45;fill:#EB177F;}
	.st1{fill:none;stroke:#EB177F;stroke-width:3;stroke-linecap:round;stroke-linejoin:round;}
	.st2{fill:none;stroke:#EB177F;stroke-width:3;stroke-linecap:round;stroke-linejoin:round;stroke-miterlimit:10;}
</style>
<path class="st0" d="M50.4,100c27.6,0,50-22.4,50-50S78,0,50.4,0s-50,22.4-50,50S22.8,100,50.4,100z"/>
<path class="st1" d="M75.5,62.5V64c0,1-0.4,1.9-1.1,2.6s-1.6,1.1-2.6,1.1H27.1c-1,0-1.9-0.4-2.6-1.1S23.4,65,23.4,64V36.7
	c0-1,0.4-1.9,1.1-2.6c0.7-0.7,1.6-1.1,2.6-1.1h44.7c1,0,1.9,0.4,2.6,1.1c0.7,0.7,1.1,1.6,1.1,2.6v6"/>
<path class="st2" d="M69.4,43.2v4.2"/>
<path class="st2" d="M69.4,57.1v4.2"/>
<path class="st2" d="M76.9,47.9l-3.4,1.9"/>
<path class="st2" d="M65.5,54.6L62,56.6"/>
<path class="st2" d="M62,47.9l3.4,1.9"/>
<path class="st2" d="M73.4,54.6l3.4,1.9"/>
<path class="st2" d="M30.8,57.7l7.8-7.8l5.7,5.7l12-12"/>
</svg>
