<?xml version="1.0" encoding="utf-8"?>
<!-- Generator: Adobe Illustrator 25.0.0, SVG Export Plug-In . SVG Version: 6.00 Build 0)  -->
<svg version="1.1" id="Layer_1" xmlns="http://www.w3.org/2000/svg" xmlns:xlink="http://www.w3.org/1999/xlink" x="0px" y="0px"
	 viewBox="0 0 100 100" style="enable-background:new 0 0 100 100;" xml:space="preserve">
<style type="text/css">
	.st0{opacity:0.45;fill:#EB177F;enable-background:new    ;}
	.st1{fill:none;stroke:#EB177F;stroke-width:3.5;stroke-linejoin:round;}
</style>
<path class="st0" d="M50,100c27.6,0,50-22.4,50-50S77.6,0,50,0S0,22.4,0,50S22.4,100,50,100z"/>
<g>
	<g>
		<circle class="st1" cx="51.5" cy="31.6" r="6.6"/>
		<polygon class="st1" points="68.4,37.5 67.6,34.2 57,39.1 53.9,39.1 51.4,42.1 49,39.1 44.2,40 44.2,40.1 34,33.6 31.6,37.3 
			44.9,45.8 45.5,52 45.7,54.4 46,54.4 46,55.9 46,57 43.2,62.2 37.8,59.3 35.6,63.3 35.6,63.3 35,64.4 36.5,65.2 37,64.1 
			44.8,68.2 46.9,64.1 46.9,64.1 50.7,57 52.4,57 54.3,64.9 49.7,71.8 49.7,71.8 49.7,71.8 54.5,75 55.6,73.3 54.6,72.6 59.2,65.7 
			59.2,65.7 57.1,57 57.1,55.9 57.1,54.4 57.5,54.4 58.3,43.6 		"/>
	</g>
</g>
</svg>
