<?xml version="1.0" encoding="utf-8"?>
<!-- Generator: Adobe Illustrator 25.0.0, SVG Export Plug-In . SVG Version: 6.00 Build 0)  -->
<svg version="1.1" id="Layer_1" xmlns="http://www.w3.org/2000/svg" xmlns:xlink="http://www.w3.org/1999/xlink" x="0px" y="0px"
	 viewBox="0 0 100 100" style="enable-background:new 0 0 100 100;" xml:space="preserve">
<style type="text/css">
	.st0{opacity:0.45;fill:#EB177F;}
	.st1{fill:none;stroke:#EB177F;stroke-width:3;}
	.st2{fill:#EB177F;stroke:#EB177F;stroke-width:0.5;}
</style>
<path class="st0" d="M50,100c27.6,0,50-22.4,50-50S77.6,0,50,0S0,22.4,0,50S22.4,100,50,100z"/>
<path class="st1" d="M43.2,75.6c0.2,0.1,0.5,0.1,0.7,0.1c0.7,0,1.4-0.4,1.6-1.1l1.4-3.4c1.7,0.2,3.5,0.2,5.2,0l1.4,3.4
	c0.2,0.4,0.5,0.8,0.9,1c0.4,0.2,0.9,0.2,1.3,0l6-2.5c0.4-0.2,0.8-0.5,1-1c0.2-0.4,0.2-0.9,0-1.3l-1.4-3.4c1.4-1.1,2.6-2.3,3.7-3.7
	l3.4,1.4c0.4,0.2,0.9,0.2,1.4,0c0.4-0.2,0.8-0.5,1-1l2.5-6c0.2-0.4,0.2-0.9,0-1.3c-0.2-0.4-0.5-0.8-1-1l-2.4-1l-39.8-0.4l-3.4,1.4
	c-0.9,0.4-1.3,1.4-0.9,2.3l2.5,6c0.2,0.4,0.5,0.8,0.9,0.9c0.4,0.2,0.9,0.2,1.3,0l3.5-1.4c1.1,1.4,2.3,2.6,3.7,3.7l-1.4,3.4
	c-0.2,0.4-0.2,0.9,0,1.3c0.2,0.4,0.5,0.8,1,1L43.2,75.6z"/>
<path class="st1" d="M69.1,55.2L69.1,55.2H33.4c-6,0-10.8-4.9-10.8-10.8s4.9-10.8,10.8-10.8c0.1,0,0.1,0,0.2,0l1,0l0.4-0.9
	c2-4.6,6.6-7.7,11.7-7.7c5.1,0,9.7,3,11.7,7.7l0.4,0.9l1,0c3.7,0.1,7,2.3,8.5,5.8l0.4,0.9l0.9,0.1c4.1,0.3,7.2,3.7,7.1,7.7
	C76.5,52,73.1,55.2,69.1,55.2z"/>
<path class="st2" d="M49.6,65.5L49.6,65.5c6,0,11.4-3.7,13.5-9.3c0.2-0.4,0.1-0.9-0.2-1.2c-0.3-0.3-0.7-0.5-1.1-0.4
	c-0.4,0.1-0.8,0.4-0.9,0.8c-1.8,4.7-6.3,7.8-11.3,7.8s-9.5-3.1-11.3-7.8c-0.2-0.4-0.5-0.7-0.9-0.8c-0.4-0.1-0.9,0.1-1.1,0.4
	c-0.3,0.3-0.3,0.8-0.2,1.2C38.2,61.8,43.6,65.5,49.6,65.5z"/>
</svg>
