<?xml version="1.0" encoding="utf-8"?>
<!-- Generator: Adobe Illustrator 25.0.0, SVG Export Plug-In . SVG Version: 6.00 Build 0)  -->
<svg version="1.1" id="Layer_1" xmlns="http://www.w3.org/2000/svg" xmlns:xlink="http://www.w3.org/1999/xlink" x="0px" y="0px"
	 viewBox="0 0 100 100" style="enable-background:new 0 0 100 100;" xml:space="preserve">
<style type="text/css">
	.st0{opacity:0.45;fill:#EB177F;}
	.st1{fill:none;stroke:#EB177F;stroke-width:3;stroke-linecap:round;stroke-linejoin:round;}
	.st2{fill:none;stroke:#EB177F;stroke-width:2;stroke-linecap:round;stroke-linejoin:round;}
	.st3{fill:none;stroke:#EB177F;stroke-width:3;}
	.st4{fill:#EB177F;stroke:#EB177F;stroke-miterlimit:10;}
</style>
<path class="st0" d="M49.9,100c27.3,0,49.5-22.4,49.5-50S77.2,0,49.9,0S0.4,22.4,0.4,50S22.6,100,49.9,100z"/>
<path class="st1" d="M35.9,23.9c6.2-3.3,13.4-4.2,20.3-2.6c6.8,1.7,12.8,5.9,16.8,11.7s5.7,13,4.8,20.1c-0.9,7.1-4.3,13.5-9.6,18.2
	C63,76,56.2,78.6,49.1,78.5c-7-0.1-13.8-2.8-19-7.5s-8.5-11.3-9.2-18.4c-0.7-7.1,1.1-14.2,5.2-20"/>
<path class="st2" d="M34.5,24.2l1.9-4.2"/>
<path class="st2" d="M34.5,23.9l4.1,1.7"/>
<path class="st3" d="M49.4,72.1c12.4,0,22.4-10.1,22.4-22.6c0-12.5-10-22.6-22.4-22.6C37,26.9,27,37,27,49.5
	C27,62,37,72.1,49.4,72.1z"/>
<path class="st4" d="M49.4,30.5L49.4,30.5c-0.7,0-1.3,0.6-1.3,1.3v1.7c0,0.7,0.6,1.3,1.3,1.3l0,0c0.7,0,1.3-0.6,1.3-1.3v-1.7
	C50.7,31,50.1,30.5,49.4,30.5z"/>
<path class="st4" d="M49.4,64.3L49.4,64.3c-0.7,0-1.3,0.6-1.3,1.3v1.7c0,0.7,0.6,1.3,1.3,1.3l0,0c0.7,0,1.3-0.6,1.3-1.3v-1.7
	C50.7,64.9,50.1,64.3,49.4,64.3z"/>
<path class="st4" d="M68.3,49.5L68.3,49.5c0-0.7-0.6-1.3-1.3-1.3h-1.7c-0.7,0-1.3,0.6-1.3,1.3l0,0c0,0.7,0.6,1.3,1.3,1.3H67
	C67.7,50.8,68.3,50.2,68.3,49.5z"/>
<path class="st4" d="M34.7,49.5L34.7,49.5c0-0.7-0.6-1.3-1.3-1.3h-1.7c-0.7,0-1.3,0.6-1.3,1.3l0,0c0,0.7,0.6,1.3,1.3,1.3h1.7
	C34.2,50.8,34.7,50.2,34.7,49.5z"/>
<path class="st1" d="M42.9,49.6l4.6,4.5l9.6-9.4"/>
</svg>
