<?xml version="1.0" encoding="utf-8"?>
<!-- Generator: Adobe Illustrator 25.0.0, SVG Export Plug-In . SVG Version: 6.00 Build 0)  -->
<svg version="1.1" id="Layer_1" xmlns="http://www.w3.org/2000/svg" xmlns:xlink="http://www.w3.org/1999/xlink" x="0px" y="0px"
	 viewBox="0 0 100 100" style="enable-background:new 0 0 100 100;" xml:space="preserve">
<style type="text/css">
	.st0{opacity:0.45;fill:#EB177F;enable-background:new    ;}
	.st1{fill:#EB177F;enable-background:new    ;}
</style>
<path class="st0" d="M49.9,100c27.3,0,49.5-22.4,49.5-50S77.2,0,49.9,0S0.4,22.4,0.4,50S22.6,100,49.9,100z"/>
<path class="st1" d="M50,22.5c-10.9,0-19.8,8.9-19.8,19.8c0,7,3.9,11.6,7.1,15.3c2.1,2.5,3.9,4.6,3.9,6.7v11h6.6v2.2h4.4v-2.2h6.6
	v-11c0-2.1,1.8-4.2,3.9-6.7c3.1-3.7,7.1-8.3,7.1-15.3C69.8,31.4,60.9,22.5,50,22.5z M54.4,70.9h-8.8v-4.4h8.8V70.9z M59.4,54.8
	c-2,2.4-4,4.7-4.7,7.3h-9.4c-0.7-2.7-2.7-5-4.7-7.3c-3-3.5-6-7.1-6-12.5c0-8.5,6.9-15.4,15.4-15.4s15.4,6.9,15.4,15.4
	C65.4,47.7,62.3,51.3,59.4,54.8z M50,29.1v4.4c-4.9,0-8.8,3.9-8.8,8.8h-4.4C36.8,35,42.7,29.1,50,29.1z"/>
</svg>
